<svg width="47" height="57" viewBox="0 0 47 57" fill="none" xmlns="http://www.w3.org/2000/svg">
<path d="M22.9482 56.4565C21.7405 56.1913 20.6506 55.7198 19.87 54.7033C19.2956 53.9814 18.9274 53.1858 18.8537 52.2576C18.839 52.0956 18.7948 51.9335 18.7653 51.742C18.4708 51.742 18.2204 51.7567 17.97 51.742C17.3072 51.7125 16.9685 51.3884 16.9243 50.7254C16.8948 50.3718 16.9243 50.033 16.9243 49.6794C16.9243 46.5119 16.9096 43.359 16.939 40.2062C16.9537 38.8803 16.4235 37.9374 15.3042 37.245C11.0035 34.5783 8.42599 30.7478 7.7043 25.7387C7.07098 21.2894 8.14615 17.2231 10.9446 13.6873C14.2584 9.50318 18.6622 7.38167 23.9939 7.57319C30.062 7.79418 34.6278 10.6818 37.603 16.0003C39.0464 18.5786 39.665 21.3778 39.4735 24.3243C39.12 29.5987 36.8224 33.8417 32.4038 36.7588C30.7543 37.8343 29.9884 39.0424 30.0768 41.0313C30.2093 44.0957 30.1062 47.1601 30.1062 50.2392C30.1062 51.521 29.9 51.7272 28.6039 51.7567C28.5008 51.7567 28.383 51.7714 28.3241 51.7862C28.1031 52.5081 27.9706 53.2447 27.6613 53.893C26.9838 55.3073 25.8055 56.1323 24.259 56.3975C24.1854 56.4123 24.1265 56.4565 24.0528 56.4859C23.6846 56.4565 23.3164 56.4565 22.9482 56.4565ZM23.4932 38.5562V38.5709C24.966 38.5709 26.4388 38.5709 27.897 38.5709C28.1621 38.5709 28.383 38.5709 28.4861 38.232C28.8543 37.0682 29.6496 36.2579 30.6806 35.6538C31.9325 34.9024 33.0666 34.0038 34.0092 32.8841C37.603 28.641 38.5898 23.8382 36.7045 18.6375C34.024 11.2269 25.9381 7.60266 18.5297 10.3282C11.6957 12.8475 7.86631 20.4644 9.94302 27.4329C10.9887 30.9246 13.0507 33.6354 16.1584 35.5654C17.2189 36.2284 18.1026 37.024 18.5002 38.2468C18.6033 38.5856 18.8242 38.5856 19.0894 38.5856C20.5475 38.5562 22.0203 38.5562 23.4932 38.5562ZM28.1768 44.243C25.0249 44.243 21.9319 44.243 18.8243 44.243C18.8243 44.8913 18.8243 45.4953 18.8243 46.1141C21.9614 46.1141 25.0544 46.1141 28.1768 46.1141C28.1768 45.4806 28.1768 44.8765 28.1768 44.243ZM18.8095 42.2983C21.9614 42.2983 25.0544 42.2983 28.1621 42.2983C28.1621 41.6648 28.1621 41.0755 28.1621 40.4714C25.0249 40.4714 21.9319 40.4714 18.8095 40.4714C18.8095 41.1049 18.8095 41.6795 18.8095 42.2983ZM18.8537 49.8267C21.9614 49.8267 25.0544 49.8267 28.1768 49.8267C28.1768 49.2374 28.1768 48.6776 28.1768 48.0441C27.9264 48.0441 27.7202 48.0441 27.4993 48.0441C25.0986 48.0441 22.6978 48.0293 20.2971 48.0293C18.6475 48.0293 18.6475 48.0293 18.7948 49.6941C18.7948 49.7236 18.8243 49.7531 18.8537 49.8267ZM20.7389 51.7714C20.7095 53.3478 22.0203 54.6149 23.5668 54.5559C25.0986 54.5117 26.3505 53.2152 26.2326 51.7714C24.421 51.7714 22.5947 51.7714 20.7389 51.7714Z" fill="url(#paint0_linear_1_282)"/>
<path d="M22.5505 2.79962C22.5505 2.21031 22.5358 1.62099 22.5505 1.04642C22.5799 0.383443 22.9629 -0.0143373 23.5078 0.000395474C24.0381 0.0151282 24.4063 0.398176 24.421 1.04642C24.4505 2.23977 24.4505 3.43312 24.421 4.61174C24.4063 5.24525 24.0233 5.61357 23.4931 5.61357C22.9629 5.61357 22.5799 5.24525 22.5505 4.61174C22.5358 4.0077 22.5505 3.40366 22.5505 2.79962Z" fill="url(#paint1_linear_1_282)"/>
<path d="M8.13193 33.0901C8.02883 33.2375 7.89628 33.5763 7.6459 33.7236C6.58545 34.3866 5.51028 35.0054 4.40564 35.6094C3.89015 35.8894 3.37466 35.7273 3.10954 35.2706C2.85916 34.8139 2.97699 34.2982 3.47775 33.9888C4.52347 33.3553 5.59865 32.7366 6.67382 32.1472C7.38078 31.7642 8.13193 32.1914 8.13193 33.0901Z" fill="url(#paint2_linear_1_282)"/>
<path d="M43.9813 34.6372C43.9813 35.4622 43.3038 35.9631 42.7147 35.6537C41.5217 35.0349 40.3729 34.3572 39.2388 33.6501C38.7969 33.3849 38.7233 32.825 39.0031 32.4272C39.283 32.0147 39.6954 31.8379 40.152 32.0884C41.3155 32.7219 42.4496 33.3849 43.5837 34.0626C43.8046 34.1952 43.9077 34.5193 43.9813 34.6372Z" fill="url(#paint3_linear_1_282)"/>
<path d="M8.14674 13.9818C8.13201 14.7774 7.4545 15.2488 6.85064 14.9394C5.68709 14.3354 4.55301 13.6577 3.43365 12.9652C2.99179 12.7001 2.90342 12.1697 3.16853 11.7572C3.43365 11.3299 3.89023 11.1531 4.30262 11.3741C5.49562 12.0076 6.65917 12.7 7.80798 13.422C7.99945 13.5398 8.0731 13.8639 8.14674 13.9818Z" fill="url(#paint4_linear_1_282)"/>
<path d="M42.9648 11.3004C43.4803 11.3152 43.8043 11.5214 43.9368 11.9634C44.0841 12.4201 43.9074 12.7737 43.5392 13.0094C42.95 13.3778 42.3462 13.7166 41.7423 14.0702C41.271 14.3501 40.7997 14.63 40.3137 14.8805C39.7982 15.1604 39.2679 15.0278 39.0028 14.6006C38.7377 14.1586 38.8408 13.5988 39.3269 13.3041C40.3873 12.6559 41.4772 12.0518 42.5671 11.433C42.6997 11.3446 42.8764 11.3299 42.9648 11.3004Z" fill="url(#paint5_linear_1_282)"/>
<path d="M15.01 7.13094C14.9952 7.63185 14.789 7.94124 14.3914 8.08857C13.9201 8.26536 13.5518 8.08857 13.3015 7.70552C12.9185 7.11621 12.5945 6.51216 12.241 5.90812C11.9612 5.42194 11.6519 4.93576 11.4015 4.43484C11.1511 3.94866 11.2984 3.44775 11.7255 3.18256C12.1674 2.91737 12.7271 3.0205 13.0216 3.50668C13.6697 4.58217 14.2883 5.68713 14.9069 6.79208C14.9805 6.90995 14.9952 7.05727 15.01 7.13094Z" fill="url(#paint6_linear_1_282)"/>
<path d="M33.0813 8.14767C32.2565 8.14767 31.7558 7.4847 32.0651 6.89539C32.6837 5.71677 33.3612 4.56762 34.0534 3.41846C34.3038 2.99121 34.8929 2.91755 35.2759 3.18274C35.6883 3.46266 35.865 3.87517 35.6293 4.33189C34.996 5.48104 34.348 6.6302 33.6557 7.74989C33.5084 7.95615 33.1991 8.05928 33.0813 8.14767Z" fill="url(#paint7_linear_1_282)"/>
<path d="M2.80004 22.5858C3.40391 22.5858 4.00777 22.571 4.61164 22.5858C5.20077 22.6005 5.58371 22.9688 5.61317 23.4697C5.64263 23.9854 5.23023 24.4274 4.64109 24.4421C3.41863 24.4716 2.18145 24.4716 0.958991 24.4421C0.340397 24.4274 -0.0278128 24.0148 0.00164405 23.4697C0.0163725 22.9394 0.384582 22.6005 0.988447 22.5858C1.59231 22.571 2.19618 22.5858 2.80004 22.5858Z" fill="url(#paint8_linear_1_282)"/>
<path d="M44.1727 22.5856C44.7766 22.5856 45.3805 22.5709 45.9843 22.5856C46.6176 22.6004 46.9858 22.954 47.0006 23.4991C47.0006 24.0442 46.6324 24.442 46.0138 24.4567C44.806 24.4862 43.5983 24.4862 42.3906 24.4567C41.7867 24.442 41.3743 24.0295 41.3891 23.4991C41.4038 22.9687 41.8014 22.6151 42.42 22.5856C42.4495 22.5856 42.4937 22.5856 42.5231 22.5856C43.0681 22.5856 43.613 22.5856 44.1727 22.5856Z" fill="url(#paint9_linear_1_282)"/>
<defs>
<linearGradient id="paint0_linear_1_282" x1="23.5179" y1="7.56128" x2="23.5179" y2="56.4859" gradientUnits="userSpaceOnUse">
<stop stop-color="#5DF7EE"/>
<stop offset="1" stop-color="#5174F0"/>
</linearGradient>
<linearGradient id="paint1_linear_1_282" x1="23.4935" y1="0" x2="23.4935" y2="5.61357" gradientUnits="userSpaceOnUse">
<stop stop-color="#5DF7EE"/>
<stop offset="1" stop-color="#5174F0"/>
</linearGradient>
<linearGradient id="paint2_linear_1_282" x1="5.55718" y1="32.0066" x2="5.55718" y2="35.7475" gradientUnits="userSpaceOnUse">
<stop stop-color="#5DF7EE"/>
<stop offset="1" stop-color="#5174F0"/>
</linearGradient>
<linearGradient id="paint3_linear_1_282" x1="41.4096" y1="31.9729" x2="41.4096" y2="35.746" gradientUnits="userSpaceOnUse">
<stop stop-color="#5DF7EE"/>
<stop offset="1" stop-color="#5174F0"/>
</linearGradient>
<linearGradient id="paint4_linear_1_282" x1="5.58307" y1="11.2786" x2="5.58307" y2="15.0353" gradientUnits="userSpaceOnUse">
<stop stop-color="#5DF7EE"/>
<stop offset="1" stop-color="#5174F0"/>
</linearGradient>
<linearGradient id="paint5_linear_1_282" x1="41.4245" y1="11.3004" x2="41.4245" y2="15.0279" gradientUnits="userSpaceOnUse">
<stop stop-color="#5DF7EE"/>
<stop offset="1" stop-color="#5174F0"/>
</linearGradient>
<linearGradient id="paint6_linear_1_282" x1="13.1446" y1="3.04004" x2="13.1446" y2="8.15737" gradientUnits="userSpaceOnUse">
<stop stop-color="#5DF7EE"/>
<stop offset="1" stop-color="#5174F0"/>
</linearGradient>
<linearGradient id="paint7_linear_1_282" x1="33.8538" y1="3.02795" x2="33.8538" y2="8.14767" gradientUnits="userSpaceOnUse">
<stop stop-color="#5DF7EE"/>
<stop offset="1" stop-color="#5174F0"/>
</linearGradient>
<linearGradient id="paint8_linear_1_282" x1="2.80733" y1="22.5792" x2="2.80733" y2="24.4642" gradientUnits="userSpaceOnUse">
<stop stop-color="#5DF7EE"/>
<stop offset="1" stop-color="#5174F0"/>
</linearGradient>
<linearGradient id="paint9_linear_1_282" x1="44.1946" y1="22.5791" x2="44.1946" y2="24.4788" gradientUnits="userSpaceOnUse">
<stop stop-color="#5DF7EE"/>
<stop offset="1" stop-color="#5174F0"/>
</linearGradient>
</defs>
</svg>
