<svg width="56" height="56" viewBox="0 0 56 56" fill="none" xmlns="http://www.w3.org/2000/svg">
<path d="M15.6663 14.6655C14.664 12.7359 14.872 11.3928 16.2904 9.974C16.6875 9.57674 17.0847 9.16056 17.5007 8.78222C18.938 7.42019 20.9048 7.40127 22.3232 8.78222C22.9662 9.40649 23.5713 10.0686 24.2143 10.7307C24.4791 10.4848 24.6682 10.3145 24.8384 10.1253C27.7697 7.19318 30.701 4.24211 33.6512 1.30995C35.9773 -0.979029 39.7218 -0.146674 40.7241 2.86115C41.2915 4.60153 40.8376 6.1149 39.5516 7.38235C36.6582 10.2956 33.7458 13.1899 30.8334 16.0842C30.6443 16.2734 30.4173 16.3869 30.266 16.5004C33.1406 19.3758 35.8828 22.1188 38.6628 24.8807C38.7952 24.7483 38.9843 24.578 39.1545 24.4078C42.0858 21.4756 45.0171 18.5246 47.9673 15.6113C50.2934 13.3223 54.0568 14.1547 55.0402 17.1814C55.6076 18.9218 55.1537 20.4352 53.8677 21.7026C50.9553 24.597 48.0618 27.5102 45.1495 30.4045C44.9603 30.5937 44.7901 30.764 44.5632 31.0288C45.1873 31.6531 45.8114 32.2206 46.3976 32.8259C47.8916 34.3582 47.8916 36.3256 46.3976 37.8579C45.9816 38.2741 45.5844 38.7092 45.1495 39.1064C43.958 40.1847 42.5964 40.5252 41.1024 39.8064C40.6863 39.5983 40.5161 39.7874 40.2703 40.0334C37.4903 42.8142 34.6913 45.595 31.9113 48.3947C27.8454 52.4998 22.9283 54.3915 17.1792 53.7861C15.4772 53.597 13.813 52.9538 12.1487 52.443C11.7138 52.3106 11.449 52.2728 11.1275 52.6511C10.0496 53.8429 8.85813 54.8266 7.21282 55.1671C4.69758 55.6589 2.12562 54.5617 0.839629 52.3673C-0.465271 50.1351 -0.238341 47.2975 1.44479 45.368C1.7852 44.9707 2.14451 44.5924 2.52274 44.2519C2.91988 43.8925 2.99554 43.6087 2.78751 43.0601C0.385737 36.8553 1.04765 30.991 4.94343 25.5617C5.49187 24.8051 6.15378 24.1051 6.81568 23.443C9.55786 20.6811 12.3189 17.9381 15.08 15.1762C15.2502 14.987 15.4583 14.8357 15.6663 14.6655ZM16.8766 16.0842C16.8199 16.141 16.7064 16.1977 16.6308 16.2734C13.5671 19.338 10.3711 22.308 7.45868 25.5239C3.2414 30.1586 2.1256 35.6067 4.22478 41.5089C8.13948 52.4619 21.8882 55.5076 30.2093 47.3354C33.0839 44.5167 35.9206 41.6413 38.7763 38.7848C38.9276 38.6335 39.041 38.4822 39.1356 38.3686C31.7033 30.9342 24.3089 23.5187 16.8766 16.0842ZM39.0221 4.1286C38.9843 3.88268 38.9654 3.61784 38.8897 3.37192C38.3602 1.68829 36.2799 1.30994 34.9372 2.63415C31.7411 5.81223 28.564 9.00923 25.3679 12.1873C24.3845 13.171 24.1198 13.171 23.1742 12.2062C22.4745 11.5063 21.7747 10.7874 21.075 10.1064C20.3186 9.38757 19.5054 9.38757 18.7489 10.1064C18.4274 10.4091 18.1059 10.7307 17.8033 11.0523C16.6686 12.1873 16.6686 12.8494 17.7844 13.9844C23.2877 19.5082 28.772 25.0131 34.2753 30.5369C36.6392 32.9205 39.0032 35.2852 41.3671 37.6687C42.2182 38.52 43.0314 38.52 43.8824 37.6687C44.2417 37.3282 44.5821 36.9688 44.9414 36.6094C45.7924 35.7392 45.7924 34.9446 44.9603 34.0934C44.2417 33.3745 43.5231 32.6557 42.8044 31.9368C42.0479 31.1612 42.0479 30.8207 42.8044 30.0451C44.7712 28.0777 46.738 26.1103 48.7048 24.143C50.0286 22.8188 51.3525 21.5135 52.6574 20.1893C53.4138 19.4137 53.5273 18.3165 53.0167 17.3706C52.5628 16.5193 51.655 16.0464 50.6149 16.3112C50.0854 16.4437 49.518 16.7842 49.1209 17.1625C45.9059 20.3217 42.7288 23.5187 39.5516 26.7157C38.7384 27.5291 38.3791 27.5291 37.5659 26.7157C34.5779 23.7268 31.5898 20.7379 28.6018 17.749C27.6941 16.8409 27.6752 16.5572 28.5829 15.6491C31.7601 12.4332 34.9561 9.1984 38.1522 6.0014C38.6628 5.47172 39.0221 4.88529 39.0221 4.1286ZM4.0546 45.5572C2.44711 46.8057 1.57717 48.3191 2.03104 50.381C2.37145 51.8566 3.69528 53.0294 5.18929 53.2565C6.96698 53.5402 8.65011 52.7646 9.63351 51.1567C7.36412 49.7189 5.5297 47.8461 4.0546 45.5572Z" fill="url(#paint0_linear_1_257)"/>
<path d="M15.2692 35.7203C14.8153 35.3608 14.5127 35.1149 14.2101 34.8501C13.7941 34.5096 13.5104 34.0177 13.7941 33.5448C13.9832 33.2232 14.456 32.9394 14.8342 32.8827C17.3684 32.4665 19.9214 32.1071 22.4556 31.7287C23.3633 31.5963 24.2711 31.4639 25.1789 31.3126C25.784 31.1991 26.2757 31.3315 26.5594 31.8801C26.8431 32.4287 26.5594 32.8638 26.1434 33.2421C24.4791 34.7744 22.8338 36.3256 21.1696 37.8768C20.9805 38.0471 20.7914 38.2362 20.5266 38.5011C21.0372 38.974 21.5668 39.3524 21.945 39.8442C22.1719 40.1469 22.3232 40.6766 22.2287 41.036C22.153 41.3008 21.6613 41.5846 21.3398 41.6224C17.7655 42.0575 14.1723 42.4548 10.598 42.8709C10.0307 42.9277 9.52007 42.7574 9.4066 42.2467C9.33095 41.9062 9.50116 41.3576 9.76593 41.0927C11.3167 39.4659 12.9242 37.8957 14.5127 36.3256C14.664 36.1364 14.891 36.004 15.2692 35.7203ZM22.6258 33.8664C22.6069 33.8285 22.588 33.7907 22.5691 33.734C20.659 33.9988 18.7678 34.2826 16.8389 34.5474C17.7088 35.8716 17.7088 35.8716 16.5741 37.0255C15.4205 38.1795 14.248 39.3334 12.9431 40.6576C15.1746 40.3928 17.1793 40.1469 19.2785 39.882C19.1272 39.6929 19.0326 39.5794 18.938 39.4848C17.8601 38.3687 17.8601 38.1984 19.0326 37.1201C20.224 36.0608 21.4155 34.9636 22.6258 33.8664Z" fill="url(#paint1_linear_1_257)"/>
<defs>
<linearGradient id="paint0_linear_1_257" x1="27.6404" y1="0" x2="27.6404" y2="55.2832" gradientUnits="userSpaceOnUse">
<stop stop-color="#5DF7EE"/>
<stop offset="1" stop-color="#5174F0"/>
</linearGradient>
<linearGradient id="paint1_linear_1_257" x1="18.0312" y1="31.2751" x2="18.0312" y2="42.8814" gradientUnits="userSpaceOnUse">
<stop stop-color="#5DF7EE"/>
<stop offset="1" stop-color="#5174F0"/>
</linearGradient>
</defs>
</svg>
