<svg width="53" height="53" viewBox="0 0 53 53" fill="none" xmlns="http://www.w3.org/2000/svg">
<path d="M24.8379 0C25.944 0 27.05 0 28.156 0C28.2943 0.0276587 28.4187 0.0691467 28.5569 0.082976C29.9118 0.290416 31.2943 0.41488 32.6354 0.719125C42.8384 3.05628 50.8709 11.589 52.5991 21.9195C52.765 22.8875 52.8617 23.8556 53 24.8375C53 25.9438 53 27.0502 53 28.1565C52.9724 28.3086 52.9309 28.4608 52.9032 28.6129C52.7097 29.8714 52.6129 31.1575 52.3364 32.3883C48.8109 47.8633 32.6216 56.7556 17.6212 51.4728C5.31667 47.1442 -2.05219 34.2276 0.505484 21.4216C2.6484 10.5656 11.0542 2.32333 21.9761 0.387221C22.9301 0.221269 23.884 0.124464 24.8379 0ZM40.1978 26.497C40.1978 18.9185 34.0456 12.7783 26.4693 12.7921C18.9069 12.806 12.81 18.9047 12.7823 26.4832C12.7547 34.034 18.9069 40.2019 26.4831 40.2157C34.0456 40.2157 40.2116 34.0616 40.1978 26.497ZM4.52863 14.7144C2.67605 18.1856 1.70828 21.8089 1.57003 25.6949C4.81897 25.6949 8.02643 25.6949 11.2477 25.6949C11.3721 23.5237 11.9251 21.5046 12.8929 19.5408C10.1002 17.9228 7.32133 16.3324 4.52863 14.7144ZM48.4653 14.7144C45.6588 16.3324 42.8937 17.9366 40.1702 19.5132C40.5434 20.5504 40.9444 21.5184 41.2209 22.528C41.4974 23.5514 41.6356 24.6162 41.843 25.6949C44.9952 25.6949 48.2026 25.6949 51.4377 25.6949C51.2718 21.7812 50.3041 18.1579 48.4653 14.7144ZM34.7783 39.3168C36.4097 42.138 37.9996 44.9038 39.6171 47.6974C42.949 45.5953 45.6035 42.9401 47.6773 39.6349C44.8569 38.003 42.078 36.4126 39.2992 34.7946C38.0964 36.6201 36.6171 38.0998 34.7783 39.3168ZM39.6171 5.29663C37.9858 8.13165 36.382 10.8975 34.7783 13.6772C36.6309 14.8942 38.0964 16.3878 39.2992 18.1856C42.1195 16.5537 44.8846 14.9633 47.6773 13.3453C45.5897 10.0401 42.9352 7.38486 39.6171 5.29663ZM13.363 5.29663C10.0449 7.39869 7.37664 10.0401 5.30285 13.3591C8.1232 14.991 10.8883 16.5814 13.681 18.1994C14.8838 16.3601 16.3907 14.8804 18.188 13.6772C16.5843 10.8837 14.9944 8.13165 13.363 5.29663ZM13.3768 47.6697C14.9944 44.8762 16.5843 42.1103 18.1603 39.3859C17.317 38.6668 16.4737 38.0307 15.7271 37.2839C14.9805 36.5371 14.3307 35.6797 13.6118 34.8361C10.8744 36.4126 8.10937 38.0168 5.35815 39.6072C6.43652 41.9859 10.5841 46.1485 13.3768 47.6697ZM38.2761 4.52219C34.8198 2.66906 31.1837 1.71484 27.3127 1.56271C27.2988 1.70101 27.2712 1.78398 27.2712 1.86696C27.2712 4.86793 27.2712 7.86889 27.2574 10.8699C27.2574 11.1879 27.3818 11.2571 27.6859 11.2986C28.5016 11.3954 29.3312 11.4783 30.133 11.6996C31.2529 12.0039 32.3451 12.4326 33.5064 12.8198C35.0686 10.0954 36.6585 7.32955 38.2761 4.52219ZM4.55628 38.2796C7.34899 36.6616 10.114 35.0712 12.8929 33.467C12.7961 33.2457 12.7132 33.0936 12.6441 32.9415C11.8975 31.3096 11.4274 29.6086 11.2892 27.8246C11.2615 27.3959 11.1233 27.2853 10.7085 27.2853C7.83287 27.2991 4.95721 27.2991 2.08156 27.2991C1.91566 27.2991 1.74975 27.3268 1.59767 27.3268C1.41795 30.1065 2.9802 35.9148 4.55628 38.2796ZM27.2988 51.4313C31.2114 51.2792 34.8474 50.3249 38.2899 48.4718C36.6585 45.6506 35.0686 42.8848 33.4511 40.0912C31.4879 41.087 29.4556 41.6125 27.2988 41.7508C27.2988 44.9868 27.2988 48.1814 27.2988 51.4313ZM51.4239 27.3544C51.3133 27.3268 51.2718 27.2991 51.2304 27.2991C48.175 27.2991 45.1334 27.2991 42.078 27.2853C41.7601 27.2853 41.7324 27.4512 41.7048 27.7002C41.5942 28.5023 41.525 29.3182 41.3038 30.0926C40.9858 31.2266 40.5711 32.333 40.184 33.5085C42.8937 35.0712 45.6588 36.6754 48.4653 38.2934C50.3041 34.8499 51.258 31.2266 51.4239 27.3544ZM25.6951 1.56271C21.7826 1.71484 18.1465 2.68289 14.7178 4.52219C16.3492 7.34338 17.9391 10.1092 19.5567 12.8889C19.7917 12.7783 19.9576 12.7092 20.1374 12.6262C21.7411 11.8794 23.4416 11.423 25.1974 11.2986C25.626 11.2709 25.7504 11.1464 25.7366 10.7316C25.7228 7.85506 25.7228 4.97856 25.7228 2.08823C25.7089 1.93611 25.6951 1.78398 25.6951 1.56271ZM25.6536 51.4175C25.6813 51.3207 25.7089 51.2653 25.7089 51.1962C25.7089 48.1676 25.7089 45.1251 25.7228 42.0965C25.7228 41.7784 25.5707 41.7508 25.308 41.7231C24.5061 41.6125 23.6904 41.5433 22.9162 41.322C21.7826 41.004 20.6765 40.5891 19.4876 40.2019C17.9253 42.9124 16.3216 45.6783 14.7317 48.4442C16.7363 49.9101 22.5568 51.5004 25.6536 51.4175Z" fill="url(#paint0_linear_1_260)"/>
<path d="M26.4973 19.4164C25.7922 20.2462 25.1286 21.0206 24.465 21.7951C24.1608 22.1546 23.8152 22.3068 23.3728 22.0717C22.9857 21.8642 22.8475 21.3525 23.1378 21.0068C24.0503 19.8866 24.9904 18.7803 25.9581 17.7016C26.2899 17.3282 26.7876 17.3973 27.1609 17.8399C28.2393 19.0984 29.3177 20.3568 30.3822 21.6153C30.9352 22.2791 31.5159 22.9153 32.0412 23.5929C33.8109 25.9024 33.9353 29.097 32.3731 31.5448C30.8108 33.9925 27.8798 35.2372 25.0733 34.6425C22.1977 34.034 19.958 31.6969 19.5709 28.8204C19.2944 26.8566 19.7644 25.0588 20.9949 23.4684C21.3958 22.9429 21.8244 22.8461 22.2253 23.1503C22.6262 23.4546 22.6262 23.8833 22.2253 24.4226C19.8197 27.6172 21.3267 32.0564 25.1563 33.0383C27.3683 33.6192 29.7048 32.7203 30.9905 30.8118C32.2486 28.931 32.2625 26.3864 30.8661 24.6024C29.4974 22.8599 27.9904 21.1866 26.4973 19.4164Z" fill="url(#paint1_linear_1_260)"/>
<defs>
<linearGradient id="paint0_linear_1_260" x1="26.5" y1="0" x2="26.5" y2="53.0026" gradientUnits="userSpaceOnUse">
<stop stop-color="#5DF7EE"/>
<stop offset="1" stop-color="#5174F0"/>
</linearGradient>
<linearGradient id="paint1_linear_1_260" x1="26.4783" y1="17.4598" x2="26.4783" y2="34.7895" gradientUnits="userSpaceOnUse">
<stop stop-color="#5DF7EE"/>
<stop offset="1" stop-color="#5174F0"/>
</linearGradient>
</defs>
</svg>
