<svg width="55" height="73" viewBox="0 0 55 73" fill="none" xmlns="http://www.w3.org/2000/svg">
<path d="M27.594 0C28.1424 0.39726 28.2559 0.964775 28.237 1.60796C28.1992 2.87541 28.237 4.14286 28.237 5.44814C28.5396 5.46706 28.7476 5.48598 28.9556 5.48598C30.0525 5.50489 30.374 5.82648 30.374 6.9426C30.374 12.1637 30.374 17.3659 30.374 22.5871C30.374 22.833 30.374 23.0789 30.374 23.3438C30.4118 23.3627 30.4686 23.3627 30.5064 23.3816C30.5442 23.3059 30.6009 23.2492 30.6388 23.1735C33.6646 16.9687 38.5249 12.6745 44.6901 9.78017C45.4276 9.42074 46.203 9.11807 46.9595 8.81539C47.7916 8.4938 48.2832 8.72081 48.6237 9.57208C48.7371 9.85584 48.8506 10.1207 48.983 10.4612C50.2312 9.91259 51.4037 9.38291 52.5951 8.89106C52.8598 8.77756 53.257 8.62622 53.465 8.73973C53.8054 8.9289 54.2404 9.30724 54.2782 9.64775C54.3161 9.98826 53.9946 10.5369 53.6731 10.7071C52.7086 11.2368 51.6685 11.6341 50.6472 12.0881C50.3636 12.2205 50.0988 12.334 49.7583 12.5042C49.834 12.7502 49.8907 12.9583 49.9664 13.1663C50.4581 14.5095 50.3257 14.8121 48.983 15.3418C46.7893 16.212 44.709 17.3281 42.8178 18.7658C38.6194 21.9628 35.9908 26.1246 35.1397 31.3646C35.1208 31.4971 35.1208 31.6484 35.1019 31.8376C35.3099 31.8565 35.4801 31.8754 35.6503 31.8943C36.2555 31.9511 36.6527 32.2727 36.6527 32.878C36.6716 34.7508 36.6716 36.6047 36.6527 38.4775C36.6527 39.1018 36.1798 39.4801 35.5747 39.4612C34.9695 39.4423 34.5724 39.0261 34.5535 38.3451C34.5345 37.1722 34.5534 35.9804 34.5345 34.8076C34.5345 34.5806 34.5156 34.3536 34.4967 34.0887C29.5797 34.0887 24.7005 34.0887 19.7457 34.0887C19.7457 34.4103 19.7457 34.713 19.7457 34.9967C19.7457 43.2825 19.7457 51.5682 19.7457 59.8539C19.7457 60.1755 19.8024 60.5917 19.6322 60.8187C19.3864 61.1213 18.9703 61.4429 18.611 61.4997C18.1193 61.5564 17.741 61.1781 17.6654 60.6484C17.6276 60.3646 17.6465 60.0809 17.6465 59.7971C17.6465 51.1142 17.6465 42.4312 17.6465 33.7482C17.6465 32.197 17.7032 32.1403 19.2351 31.8754C19.0081 29.8513 18.4219 27.9217 17.533 26.0868C15.2258 21.3196 11.4057 18.1605 6.67778 15.985C6.12934 15.7202 5.54308 15.5121 4.99464 15.2661C4.1058 14.8878 3.9167 14.4527 4.25711 13.5258C4.37058 13.242 4.46512 12.9583 4.5975 12.5988C4.21927 12.4097 3.84104 12.2205 3.46281 12.0691C2.55505 11.6719 1.64729 11.2746 0.739536 10.8774C0.0776302 10.5747 -0.14929 10.0261 0.0965602 9.43966C0.342411 8.87215 0.928656 8.64514 1.57165 8.9289C2.8009 9.45858 4.03016 10.0072 5.33506 10.5747C5.48635 10.2342 5.59981 9.91259 5.7511 9.60991C6.0726 8.87215 6.54539 8.64514 7.26403 8.90998C9.83601 9.87476 12.2567 11.1233 14.5261 12.6934C15.1502 13.1285 15.3015 13.7339 14.9232 14.2635C14.5639 14.7743 13.9966 14.8121 13.3536 14.4527C11.6137 13.469 9.85492 12.5042 8.09615 11.5395C7.88812 11.426 7.66119 11.3692 7.39643 11.2557C7.09384 12.0313 6.81015 12.7691 6.50757 13.5825C14.6585 17.0822 20.0672 22.833 21.4477 31.9132C22.242 31.9132 23.0363 31.9132 24.0197 31.9132C23.7171 30.5134 23.5091 29.1513 23.1309 27.8271C22.0151 23.8924 19.9726 20.4873 17.0792 17.593C16.9468 17.4605 16.8144 17.3281 16.682 17.1957C16.1903 16.6471 16.1525 16.0796 16.6064 15.6256C17.0413 15.1716 17.6843 15.1526 18.176 15.7012C19.3296 16.9876 20.5022 18.2551 21.5234 19.6171C22.4122 20.8278 23.1119 22.1709 23.944 23.5329C23.9629 23.2681 23.9819 23.0222 23.9819 22.7952C23.9819 17.7065 23.9819 12.5988 23.9819 7.51011C23.9819 5.82648 24.0953 5.71298 25.7596 5.61839C25.8541 5.61839 25.9298 5.58056 26.1189 5.54273C26.1189 4.27528 26.1378 3.00783 26.1189 1.74038C26.1 1.09719 26.2324 0.52968 26.7619 0.13242C27.0267 -5.75051e-07 27.3103 0 27.594 0ZM46.9595 11.1611C37.22 14.8878 30.9792 23.4194 30.5064 31.7619C31.3196 31.7619 32.1328 31.7619 32.9082 31.7619C34.2698 22.6628 39.6785 16.9498 47.8483 13.4312C47.5268 12.6367 47.2431 11.8989 46.9595 11.1611ZM26.1567 7.64253C26.1567 15.7391 26.1567 23.741 26.1567 31.7808C26.8565 31.7808 27.4994 31.7808 28.1991 31.7808C28.1991 23.7221 28.1991 15.7012 28.1991 7.64253C27.4994 7.64253 26.8565 7.64253 26.1567 7.64253Z" fill="url(#paint0_linear_1_263)"/>
<path d="M19.7835 70.334C24.7383 70.334 29.6175 70.334 34.5724 70.334C34.5724 70.0124 34.5724 69.7097 34.5724 69.407C34.5724 60.6673 34.5724 51.9465 34.5724 43.2068C34.5724 42.9041 34.5723 42.5825 34.648 42.2988C34.7804 41.7691 35.1775 41.5042 35.6881 41.5421C36.2366 41.5799 36.6148 41.8826 36.6715 42.469C36.6904 42.696 36.6904 42.9419 36.6904 43.1689C36.6904 52.4005 36.6904 61.6132 36.6904 70.8447C36.6904 72.2257 36.4257 72.4716 35.0262 72.4716C29.7499 72.4716 24.4546 72.4716 19.1783 72.4716C17.949 72.4716 17.6465 72.1689 17.6465 70.9204C17.6465 68.9152 17.6465 66.91 17.6465 64.9048C17.6465 63.9967 18.0247 63.5427 18.7055 63.5427C19.3863 63.5427 19.7646 64.0346 19.7646 64.9237C19.7835 66.7208 19.7835 68.499 19.7835 70.334Z" fill="url(#paint1_linear_1_263)"/>
<defs>
<linearGradient id="paint0_linear_1_263" x1="27.1406" y1="0" x2="27.1406" y2="61.5053" gradientUnits="userSpaceOnUse">
<stop stop-color="#5DF7EE"/>
<stop offset="1" stop-color="#5174F0"/>
</linearGradient>
<linearGradient id="paint1_linear_1_263" x1="27.1685" y1="41.5385" x2="27.1685" y2="72.4716" gradientUnits="userSpaceOnUse">
<stop stop-color="#5DF7EE"/>
<stop offset="1" stop-color="#5174F0"/>
</linearGradient>
</defs>
</svg>
