<svg width="51" height="52" viewBox="0 0 51 52" fill="none" xmlns="http://www.w3.org/2000/svg">
<path d="M31.9815 51.0284C22.013 51.0284 12.0579 51.0284 2.08951 51.0284C0.425889 50.3494 0 49.7104 0 47.8998C0 34.0012 0 20.0892 0 6.1905C0 2.59602 2.58195 0 6.18868 0C16.7959 0 27.4032 0 38.0237 0C41.6571 0 44.2257 2.5827 44.2257 6.21713C44.2257 9.42554 44.2257 12.6339 44.2257 15.829C44.2257 17.6662 43.2009 18.7046 41.3643 18.7046C39.1018 18.7046 36.8526 18.7046 34.59 18.7046C34.417 18.7046 34.244 18.7046 34.0577 18.7046C34.0577 22.379 34.0577 25.9735 34.0577 29.6745C34.3238 29.3816 34.5235 29.1686 34.7231 28.9422C37.6644 25.6673 40.5924 22.3923 43.547 19.1173C44.6915 17.8526 46.1156 17.36 47.7792 17.786C49.4562 18.2121 50.481 19.317 50.9068 20.9944C50.9202 21.0743 50.9734 21.1409 51 21.2075C51 21.6335 51 22.0728 51 22.4988C50.7471 23.7236 50.0151 24.6289 49.2033 25.5341C44.2257 31.059 39.2615 36.5839 34.3105 42.1353C34.1375 42.335 34.0177 42.6545 34.0177 42.9208C33.9911 44.718 34.0044 46.502 34.0044 48.2992C34.0044 49.2444 33.685 50.0299 32.8865 50.5624C32.6203 50.7621 32.2876 50.8686 31.9815 51.0284ZM32.3009 43.7861C32.1678 43.8261 32.1012 43.8394 32.048 43.866C29.9186 44.9177 27.8024 45.9694 25.673 47.0212C25.5798 47.0611 25.4734 47.101 25.4202 47.1809C25.154 47.5803 24.768 47.6336 24.3288 47.6336C19.7239 47.6203 15.1323 47.6336 10.5274 47.6336C10.381 47.6336 10.2213 47.6469 10.0749 47.6202C9.6357 47.5404 9.32959 47.1543 9.35621 46.7416C9.38283 46.3023 9.70224 45.9828 10.1681 45.9561C10.3278 45.9428 10.5008 45.9561 10.6605 45.9561C14.9061 45.9561 19.1649 45.9561 23.4105 45.9695C23.8098 45.9695 23.9828 45.8496 24.1159 45.4636C24.7946 43.5199 25.5266 41.6028 26.232 39.6724C26.2852 39.526 26.3385 39.3662 26.405 39.1532C26.1388 39.1532 25.9259 39.1532 25.7129 39.1532C19.0052 39.1532 12.2975 39.1532 5.58978 39.1532C5.39014 39.1532 5.19051 39.1532 4.99087 39.1266C4.5783 39.0734 4.32542 38.8204 4.27219 38.421C4.21895 38.0083 4.39196 37.6755 4.76461 37.5424C5.05741 37.4492 5.09734 37.2894 5.09734 37.0365C5.08403 36.3708 5.11065 35.7052 5.08403 35.0396C5.07072 34.8399 4.96425 34.6135 4.81785 34.4671C4.45851 34.0943 4.25888 33.695 4.25888 33.1757C4.25888 32.8163 4.28549 32.4435 4.24556 32.0841C4.21894 31.8711 4.1524 31.6315 4.01931 31.4717C2.9679 30.1937 3.27402 28.3831 4.72469 27.5976C4.99087 27.4512 5.09734 27.2914 5.08403 26.9853C5.07072 25.4276 5.07072 23.8567 5.08403 22.2991C5.09734 20.1957 6.53471 18.7712 8.62422 18.7579C9.9418 18.7446 11.2461 18.7579 12.5637 18.7579C14.7064 18.7712 16.1172 20.169 16.1305 22.3124C16.1438 23.87 16.1438 25.441 16.1305 26.9986C16.1305 27.2781 16.2103 27.4246 16.4765 27.571C17.8606 28.3032 18.2865 30.0472 17.3549 31.272C17.0754 31.6315 16.9823 31.9776 17.0089 32.4036C17.0222 32.6166 17.0089 32.8296 17.0089 33.0559C17.0089 33.655 16.8225 34.1609 16.3434 34.547C16.2636 34.6135 16.1571 34.72 16.1571 34.8132C16.1438 35.6786 16.1438 36.5572 16.1438 37.4359C17.0355 37.4359 17.834 37.4359 18.7124 37.4359C18.7124 36.8368 18.6991 36.251 18.7124 35.6786C18.739 34.6269 19.4045 33.7083 20.3894 33.3754C20.6555 33.2823 20.9217 33.2423 21.2012 33.1757C21.2012 28.9422 21.2012 24.7221 21.2012 20.4619C20.3494 20.4619 19.5376 20.4886 18.7257 20.4619C17.5146 20.422 16.7294 19.3437 17.1153 18.2121C17.7941 16.2151 18.4995 14.2315 19.2182 12.2479C19.4843 11.5023 20.0699 11.103 20.8685 11.103C22.8249 11.0896 24.7813 11.0896 26.7511 11.103C27.5629 11.103 28.1485 11.5023 28.428 12.2745C29.1334 14.2448 29.8387 16.2018 30.5042 18.1854C30.8901 19.3303 30.1182 20.3954 28.9071 20.4486C28.215 20.4752 27.5097 20.4486 26.8176 20.4619C26.6712 20.4619 26.5381 20.4886 26.405 20.4886C26.405 24.762 26.405 28.9689 26.405 33.1891C27.7891 33.3355 28.5877 34.0943 28.9204 35.4523C29.9452 34.3074 30.9301 33.2024 31.9282 32.124C32.2077 31.8178 32.3142 31.5249 32.3142 31.1122C32.3009 22.8449 32.3142 14.5643 32.3009 6.29701C32.3009 4.64621 32.78 3.1951 33.8847 1.97032C33.9246 1.91706 33.9512 1.8505 34.0044 1.74399C33.7782 1.74399 33.6185 1.74399 33.4588 1.74399C24.4087 1.74399 15.3586 1.74399 6.30845 1.74399C3.48695 1.74399 1.70355 3.52792 1.70355 6.33695C1.70355 20.2622 1.70355 34.1742 1.70355 48.0995C1.70355 49.1512 1.94312 49.3775 3.00783 49.3775C12.3507 49.3775 21.7069 49.3775 31.0498 49.3775C31.1962 49.3775 31.356 49.3909 31.5023 49.3775C31.9682 49.3376 32.3009 49.0447 32.3009 48.5788C32.3142 46.9679 32.3009 45.4103 32.3009 43.7861ZM34.0577 17.0006C36.6396 17.0006 39.155 17.0139 41.6837 16.9873C42.2161 16.9873 42.5355 16.6278 42.5355 16.082C42.5355 12.6339 42.602 9.17259 42.5089 5.72455C42.4423 3.10191 40.0334 1.30467 37.4781 1.77062C35.4152 2.1567 34.0311 3.87406 34.0311 6.13725C34.0177 9.58529 34.0311 13.0466 34.0311 16.4947C34.0177 16.6544 34.0444 16.8009 34.0577 17.0006ZM32.7534 41.3366C36.7461 36.89 40.6989 32.4835 44.6782 28.0503C43.4006 26.9054 42.1495 25.7871 40.8852 24.6422C36.8925 29.102 32.9264 33.5086 28.9603 37.9285C30.2247 39.0601 31.4624 40.165 32.7534 41.3366ZM14.4669 24.5623C14.4669 23.7768 14.4669 23.0047 14.4669 22.2192C14.4536 21.101 13.7881 20.4087 12.6701 20.4087C11.3259 20.3954 9.98173 20.3954 8.63752 20.4087C7.54619 20.4087 6.84081 21.0743 6.8275 22.1527C6.80089 23.7768 6.81419 25.401 6.8275 27.0385C6.8275 27.1849 6.98721 27.358 7.10699 27.4911C7.47964 27.8772 7.8523 28.2633 8.25157 28.6361C8.37135 28.7559 8.54436 28.9023 8.70407 28.9023C9.99504 28.9289 11.2993 28.9289 12.5903 28.9023C12.75 28.9023 12.9363 28.7426 13.0694 28.6094C13.4554 28.25 13.828 27.8905 14.1741 27.5045C14.3072 27.3713 14.4536 27.1849 14.4536 27.0119C14.4802 26.1865 14.4669 25.3744 14.4669 24.5623ZM28.7873 18.678C28.7873 18.5848 28.8006 18.5182 28.7873 18.465C28.1618 16.6411 27.5363 14.8306 26.8974 13.02C26.8575 12.9002 26.6046 12.7671 26.4582 12.7671C24.7148 12.7404 22.9713 12.7538 21.2278 12.7404C20.935 12.7404 20.8285 12.847 20.7354 13.0999C20.3095 14.338 19.857 15.5628 19.4178 16.8009C19.1915 17.4266 18.9786 18.039 18.739 18.6913C22.1195 18.678 25.4468 18.678 28.7873 18.678ZM45.8228 26.7856C46.8609 25.6007 47.9256 24.4957 48.8706 23.3109C49.6691 22.2858 49.4295 20.7814 48.4447 19.9427C47.4332 19.0774 45.9426 19.0907 45.0243 20.0625C43.9995 21.1276 43.0412 22.2459 42.0297 23.3641C43.2808 24.4957 44.5185 25.614 45.8228 26.7856ZM24.6349 33.1491C24.6349 28.8757 24.6349 24.6555 24.6349 20.4353C24.0626 20.4353 23.5436 20.4353 23.0245 20.4353C23.0245 24.6821 23.0245 28.9023 23.0245 33.1491C23.5702 33.1491 24.0893 33.1491 24.6349 33.1491ZM15.3053 32.3237C14.2406 32.2305 13.482 31.738 13.0029 30.8327C12.9363 30.7129 12.6968 30.6197 12.5371 30.6197C11.3925 30.6064 10.2479 30.633 9.10334 30.6064C8.63752 30.593 8.29149 30.6463 8.09186 31.1389C7.99869 31.3785 7.77245 31.6181 7.53289 31.7513C7.05376 32.0175 6.53471 32.2172 6.00235 32.4569C6.00235 32.6299 6.00235 32.8696 6.00235 33.1358C9.11665 33.1358 12.2043 33.1358 15.3186 33.1358C15.3053 32.8562 15.3053 32.6166 15.3053 32.3237ZM20.4293 37.3959C22.6253 37.3959 24.768 37.3959 26.9241 37.3826C27.0172 37.3826 27.1902 37.1962 27.1902 37.0897C27.2169 36.6105 27.2169 36.1312 27.1902 35.652C27.1636 35.1993 26.8442 34.8798 26.3784 34.8798C24.6748 34.8665 22.958 34.8665 21.2544 34.8798C20.7886 34.8798 20.4692 35.1461 20.4293 35.5854C20.3894 36.1712 20.4293 36.7702 20.4293 37.3959ZM31.316 42.3217C30.2247 41.3366 29.1999 40.418 28.1219 39.4594C27.4564 41.27 26.8176 43.0273 26.1388 44.8911C27.9355 43.9991 29.5859 43.187 31.316 42.3217ZM10.0616 34.8798C9.88857 35.7185 9.72886 36.5306 9.55584 37.3693C10.2878 37.3693 10.9666 37.3693 11.7119 37.3693C11.5389 36.504 11.3792 35.6919 11.2195 34.8798C10.8202 34.8798 10.4742 34.8798 10.0616 34.8798ZM6.84081 37.4092C7.1203 37.4092 7.33325 37.4359 7.54619 37.3959C7.66597 37.3826 7.83899 37.2761 7.86561 37.1829C8.03863 36.4241 8.17172 35.6653 8.33142 34.8931C7.81237 34.8931 7.34656 34.8931 6.85413 34.8931C6.84082 35.7318 6.84081 36.5439 6.84081 37.4092ZM14.4269 34.9197C13.9212 34.9197 13.4554 34.9197 12.9629 34.9197C13.0827 35.5454 13.2025 36.1046 13.3223 36.677C13.482 37.4758 13.482 37.4758 14.3072 37.3959C14.3338 37.3959 14.3604 37.3693 14.4269 37.356C14.4269 36.5572 14.4269 35.7585 14.4269 34.9197ZM16.1571 29.7543C16.1571 29.2884 15.7711 28.9023 15.3053 28.9023C14.8661 28.9156 14.4802 29.2884 14.4669 29.7277C14.4536 30.1937 14.8395 30.5797 15.3053 30.5931C15.7978 30.6064 16.1571 30.2336 16.1571 29.7543ZM6.80089 29.7543C6.80089 29.2751 6.41493 28.9023 5.94911 28.9023C5.50992 28.9156 5.12395 29.2884 5.11064 29.7277C5.09733 30.1937 5.4833 30.5797 5.94911 30.5931C6.44155 30.6064 6.80089 30.2336 6.80089 29.7543Z" fill="url(#paint0_linear_1_278)"/>
<defs>
<linearGradient id="paint0_linear_1_278" x1="25.5" y1="0" x2="25.5" y2="51.0284" gradientUnits="userSpaceOnUse">
<stop stop-color="#5DF7EE"/>
<stop offset="1" stop-color="#5174F0"/>
</linearGradient>
</defs>
</svg>
