<svg width="51" height="51" viewBox="0 0 51 51" fill="none" xmlns="http://www.w3.org/2000/svg">
<path d="M45.0243 34.216C44.5425 34.9105 44.0891 35.52 44.16 36.3987C44.2308 37.4193 44.1741 38.454 44.1741 39.4745C44.1741 40.4666 43.9332 40.7076 42.9697 40.7076C42.828 40.7076 42.6863 40.7076 42.4738 40.7076C42.4738 41.5438 42.4738 42.3518 42.4738 43.1597C42.4738 43.599 42.3321 43.925 41.8928 44.0668C41.326 44.2652 40.8018 43.8684 40.7734 43.2305C40.7592 42.4226 40.7734 41.6005 40.7734 40.7076C40.49 40.7076 40.235 40.7218 39.9799 40.7076C39.4131 40.6792 39.0872 40.3674 39.0731 39.8146C39.0589 38.1138 39.0305 36.4129 39.1014 34.7262C39.1297 34.216 39.3706 33.6349 39.6965 33.238C40.6317 32.0757 40.8443 30.7859 40.7876 29.3402C40.7026 26.9448 40.7734 24.5353 40.7593 22.1257C40.7451 17.6468 37.2027 14.2593 32.7534 14.4293C32.4842 14.4435 32.2291 14.486 31.889 14.5286C32.0307 14.6561 32.1016 14.7412 32.1866 14.7979C38.9172 19.5036 39.1297 29.1559 32.5975 34.1309C32.4133 34.2727 32.2433 34.4853 32.1299 34.6837C28.7859 40.5233 23.7557 43.4715 17.0393 43.2447C9.07594 42.9896 2.47288 36.6397 1.84941 28.6882C1.6227 25.8534 1.75023 23.0045 1.75023 20.1556C1.75023 19.6311 1.66521 19.1634 1.33931 18.7665C0.219907 17.4484 -0.120157 15.9176 0.0357086 14.2167C0.120726 13.2813 0.0498748 12.3458 0.0498748 11.4103C0.0498748 10.4181 0.290759 10.1914 1.25429 10.1772C1.39599 10.1772 1.53769 10.1772 1.75023 10.1772C1.75023 9.34094 1.75023 8.53303 1.75023 7.72512C1.75023 7.28574 1.90609 6.95974 2.33118 6.818C2.89797 6.63374 3.42225 7.01643 3.43642 7.65426C3.45059 8.46216 3.43642 9.28424 3.43642 10.163C3.67731 10.163 3.90402 10.163 4.13074 10.163C4.82505 10.1772 5.13678 10.4748 5.13678 11.1694C5.13678 12.2466 5.19346 13.3238 5.12261 14.401C5.05176 15.2939 5.46268 15.9459 5.98696 16.6404C6.44038 16.0026 6.89381 15.4357 6.8513 14.5994C6.79462 13.5222 6.83713 12.445 6.83713 11.3678C6.83713 10.4181 7.09218 10.163 8.0132 10.163C8.16907 10.163 8.32495 10.163 8.52332 10.163C8.52332 9.34093 8.52332 8.56138 8.52332 7.79599C8.52332 7.12982 8.84922 6.7613 9.38767 6.77548C9.92612 6.78965 10.2095 7.144 10.2095 7.79599C10.2095 8.57555 10.2095 9.34094 10.2095 10.1772C10.5071 10.1772 10.7763 10.163 11.0313 10.1772C11.5698 10.2055 11.8957 10.5174 11.8957 11.056C11.9099 12.771 11.9382 14.486 11.8674 16.2011C11.8532 16.6971 11.6123 17.2641 11.2864 17.6468C10.3229 18.8232 10.1103 20.1272 10.1812 21.6013C10.2662 23.4297 10.1953 25.2723 10.2095 27.1149C10.2237 31.5938 13.8511 35.0097 18.3145 34.7688C18.5554 34.7546 18.7821 34.7121 18.9947 34.6837C18.187 33.9325 17.3227 33.2663 16.6 32.4443C11.9949 27.2566 12.8167 19.2626 18.3712 15.0955C18.5554 14.9538 18.7255 14.7553 18.8388 14.5427C22.1687 8.68894 27.2131 5.76914 33.9295 5.9534C41.8645 6.18018 48.5384 12.5867 49.1477 20.4957C49.346 23.1179 49.2327 25.7542 49.261 28.3905C49.261 29.1134 49.3035 29.8363 49.2469 30.5591C49.2043 31.2395 49.3744 31.8206 49.7995 32.3309C50.7347 33.4931 51.1031 34.7829 50.9756 36.2712C50.8905 37.3484 50.9614 38.4256 50.9614 39.5028C50.9614 40.4525 50.7205 40.6934 49.7853 40.7076C49.6294 40.7076 49.4736 40.7076 49.2752 40.7076C49.2752 41.5297 49.2752 42.2951 49.2752 43.0746C49.2752 43.755 48.9635 44.1093 48.4109 44.0951C47.8724 44.081 47.589 43.7408 47.589 43.0888C47.589 42.3092 47.589 41.5438 47.589 40.7076C47.3481 40.7076 47.1356 40.7076 46.9372 40.7076C46.2004 40.6934 45.9028 40.4099 45.9028 39.6729C45.9028 38.5532 45.8461 37.4476 45.917 36.3279C45.9453 35.4774 45.5061 34.8963 45.0243 34.216ZM15.3389 24.5778C15.3389 30.1906 19.9015 34.7688 25.4985 34.7829C31.1097 34.7829 35.6865 30.219 35.7007 24.6061C35.7007 18.9933 31.1381 14.4152 25.5269 14.401C19.9157 14.401 15.3389 18.965 15.3389 24.5778ZM21.6586 13.2813C22.4946 13.1112 23.1606 12.9978 23.8265 12.8135C24.1808 12.7143 24.5633 12.5867 24.8467 12.36C28.0632 9.7378 31.7048 8.74563 35.7574 9.59606C41.7795 10.8575 45.8461 15.9459 45.8745 22.0974C45.8887 24.8896 45.9312 27.6819 45.8603 30.4741C45.832 31.7639 46.0445 32.8978 46.8805 33.9183C47.4473 34.6128 47.6457 35.4349 47.6032 36.3562C47.5465 37.235 47.589 38.1138 47.589 38.9926C48.1841 38.9926 48.7226 38.9926 49.2894 38.9926C49.2894 38.1705 49.2327 37.3909 49.3035 36.6255C49.4311 35.2932 49.1477 34.1309 48.2833 33.0821C47.7307 32.4017 47.5748 31.5938 47.5748 30.7009C47.6174 27.8945 47.6032 25.0739 47.5748 22.2675C47.5607 21.417 47.5323 20.5666 47.3765 19.7303C46.2996 13.9758 42.998 10.0213 37.4152 8.30625C31.7757 6.57704 26.788 8.0086 22.6079 12.1899C22.2962 12.4875 22.0412 12.8419 21.6586 13.2813ZM29.2818 36.0444C29.2535 36.0019 29.2252 35.9735 29.1968 35.931C29.0693 35.9594 28.9418 35.9877 28.8142 36.0161C28.2475 36.1294 27.6665 36.2287 27.0997 36.3704C26.8022 36.4413 26.4904 36.5547 26.2637 36.7389C23.033 39.4319 19.3489 40.4525 15.2256 39.5737C9.2318 38.298 5.17929 33.2238 5.13678 27.1007C5.12261 24.8754 5.0801 22.6501 5.15094 20.4249C5.19345 19.135 4.98091 18.0011 4.1449 16.9806C3.57812 16.2861 3.36558 15.464 3.42226 14.5569C3.47893 13.6781 3.43642 12.7993 3.43642 11.9064C2.8413 11.9064 2.31702 11.9064 1.73607 11.9064C1.73607 12.7285 1.79275 13.5222 1.7219 14.3159C1.60854 15.6199 1.87776 16.7822 2.72794 17.8169C3.28056 18.483 3.46476 19.3051 3.43642 20.1981C3.39391 22.4659 3.39391 24.7195 3.43642 26.9873C3.45059 27.937 3.49309 28.9008 3.69146 29.8363C4.85337 35.3357 8.06989 39.1485 13.426 40.8635C18.7255 42.5644 23.5431 41.4021 27.709 37.7027C28.29 37.1783 28.7717 36.5972 29.2818 36.0444ZM42.4879 38.9926C42.4879 38.5815 42.4879 38.2272 42.4879 37.8728C42.5304 34.7404 42.1762 35.4916 43.8624 32.8269C44.0608 32.5151 44.16 32.1041 44.16 31.7356C44.1883 28.589 44.1741 25.4424 44.1741 22.2958C44.1741 21.6296 44.1458 20.9493 44.0324 20.2831C42.8847 13.3946 35.9699 9.32676 29.3669 11.6654C28.6159 11.9347 27.9216 12.3316 27.1989 12.6718C27.879 12.9411 28.5025 13.1253 29.1401 13.2529C29.3952 13.3096 29.6928 13.3238 29.9478 13.2387C31.549 12.7001 33.1927 12.53 34.8505 12.856C39.3848 13.749 42.4596 17.4767 42.4738 22.1115C42.4879 24.9888 42.4596 27.8803 42.4879 30.7576C42.5021 31.608 42.3321 32.4017 41.8078 33.0396C40.9293 34.1026 40.6459 35.279 40.7734 36.6255C40.8443 37.4051 40.7876 38.1988 40.7876 38.9926C41.3827 38.9926 41.907 38.9926 42.4879 38.9926ZM8.55166 11.8781C8.55166 12.2607 8.55166 12.5726 8.55166 12.8844C8.50915 16.1585 8.87756 15.3648 7.14886 18.0862C6.96465 18.3697 6.86547 18.7382 6.86547 19.0783C6.83713 21.7147 6.83713 24.351 6.86547 26.9732C6.87964 27.8378 6.95049 28.7165 7.13469 29.5528C8.49498 35.5058 14.1628 39.1485 20.1708 37.9437C21.4744 37.6886 22.693 37.1925 23.8407 36.4271C23.0614 36.2145 22.3245 36.0161 21.5877 35.8318C21.4319 35.7893 21.2477 35.8885 21.0918 35.9168C20.1283 36.1011 19.1647 36.4271 18.187 36.4554C12.8025 36.6113 8.58 32.4726 8.55166 27.0724C8.53749 24.9463 8.60834 22.8344 8.52332 20.7083C8.46665 19.4043 8.76421 18.2704 9.58605 17.2641C10.1103 16.6121 10.3087 15.9034 10.2662 15.053C10.2095 14.0041 10.252 12.9411 10.252 11.8781C9.65689 11.8781 9.13261 11.8781 8.55166 11.8781Z" fill="url(#paint0_linear_1_266)"/>
<path d="M3.47893 3.37376C3.40808 4.73445 3.25223 5.04627 2.64294 5.07462C2.03364 5.10297 1.86359 4.80531 1.70773 3.41628C1.05592 3.30289 0.0923925 3.65724 0.0640532 2.48081C0.0498836 1.89968 0.361619 1.75794 1.75024 1.65872C1.75024 1.47446 1.75024 1.29021 1.75024 1.10595C1.75024 0.368911 2.03364 0.000393901 2.58626 0.000393901C3.15304 -0.0137799 3.43643 0.354736 3.4506 1.0776C3.4506 1.24769 3.4506 1.43194 3.4506 1.68707C3.73399 1.68707 4.01739 1.6729 4.28661 1.68707C4.82506 1.71542 5.16513 2.0556 5.15096 2.55168C5.13679 3.03359 4.81089 3.34541 4.28661 3.37376C4.03156 3.37376 3.76233 3.37376 3.47893 3.37376Z" fill="url(#paint1_linear_1_266)"/>
<path d="M47.5181 47.511C47.7023 46.0511 47.8582 45.7676 48.4391 45.8243C49.516 45.9235 49.1901 46.8165 49.2893 47.4826C49.9553 47.5819 50.8763 47.2559 50.9472 48.3614C50.9897 48.9425 50.6779 49.0985 49.2893 49.2402C49.176 49.8922 49.516 50.856 48.3541 50.8844C47.7732 50.8985 47.6315 50.5867 47.5323 49.1977C47.3056 49.1977 47.0647 49.1977 46.8238 49.1977C46.2287 49.1835 45.8886 48.8858 45.8744 48.3614C45.8603 47.837 46.2145 47.5252 46.7955 47.4968C47.0363 47.4968 47.2631 47.511 47.5181 47.511Z" fill="url(#paint2_linear_1_266)"/>
<path d="M9.35951 3.37383C8.83524 3.37383 8.2968 3.38801 7.77252 3.37383C7.19157 3.35966 6.85149 3.01948 6.86566 2.50922C6.87983 2.01314 7.20574 1.70132 7.77252 1.68714C8.86358 1.67297 9.96881 1.67297 11.0599 1.68714C11.6125 1.68714 11.9526 2.02732 11.9526 2.5234C11.9526 3.01949 11.6267 3.35966 11.0741 3.37383C10.4931 3.37383 9.9263 3.37383 9.35951 3.37383Z" fill="url(#paint3_linear_1_266)"/>
<path d="M41.5812 49.1978C41.0569 49.1978 40.5185 49.212 39.9942 49.1978C39.4274 49.1836 39.1015 48.8718 39.0873 48.3757C39.0732 47.8513 39.4132 47.5253 40.0084 47.5111C41.0853 47.4969 42.1622 47.4969 43.2391 47.5111C43.8342 47.5111 44.1742 47.8513 44.1742 48.3615C44.1742 48.8718 43.82 49.1836 43.2249 49.1978C42.6864 49.212 42.1338 49.1978 41.5812 49.1978Z" fill="url(#paint4_linear_1_266)"/>
<path d="M34.0006 24.6345C33.9865 29.3118 30.1607 33.0962 25.4564 33.0821C20.7804 33.0537 17.0113 29.241 17.0254 24.5211C17.0396 19.8721 20.8654 16.0877 25.5414 16.1018C30.2315 16.116 34.0148 19.9288 34.0006 24.6345ZM32.3003 24.6061C32.3003 20.8642 29.268 17.8169 25.5414 17.8027C21.8006 17.7885 18.74 20.8217 18.7258 24.5494C18.7116 28.3197 21.7581 31.3812 25.513 31.3812C29.2396 31.3812 32.3003 28.3338 32.3003 24.6061Z" fill="url(#paint5_linear_1_266)"/>
<path d="M20.4258 24.5637C20.44 21.7573 22.7355 19.4895 25.5411 19.4895C28.3467 19.5037 30.6138 21.7998 30.6138 24.6062C30.5996 27.3985 28.3042 29.6805 25.4986 29.6805C22.693 29.6663 20.4117 27.3701 20.4258 24.5637ZM28.9134 24.6062C28.9134 22.7211 27.3973 21.2045 25.5269 21.1904C23.6707 21.1904 22.1545 22.6928 22.1262 24.5354C22.112 26.4205 23.614 27.9654 25.4844 27.9654C27.369 27.9938 28.8993 26.4772 28.9134 24.6062Z" fill="url(#paint6_linear_1_266)"/>
<defs>
<linearGradient id="paint0_linear_1_266" x1="25.5" y1="5.94519" x2="25.5" y2="44.1182" gradientUnits="userSpaceOnUse">
<stop stop-color="#5DF7EE"/>
<stop offset="1" stop-color="#5174F0"/>
</linearGradient>
<linearGradient id="paint1_linear_1_266" x1="2.60749" y1="0" x2="2.60749" y2="5.07641" gradientUnits="userSpaceOnUse">
<stop stop-color="#5DF7EE"/>
<stop offset="1" stop-color="#5174F0"/>
</linearGradient>
<linearGradient id="paint2_linear_1_266" x1="48.4124" y1="45.8176" x2="48.4124" y2="50.8848" gradientUnits="userSpaceOnUse">
<stop stop-color="#5DF7EE"/>
<stop offset="1" stop-color="#5174F0"/>
</linearGradient>
<linearGradient id="paint3_linear_1_266" x1="9.4089" y1="1.67651" x2="9.4089" y2="3.38013" gradientUnits="userSpaceOnUse">
<stop stop-color="#5DF7EE"/>
<stop offset="1" stop-color="#5174F0"/>
</linearGradient>
<linearGradient id="paint4_linear_1_266" x1="41.6306" y1="47.5005" x2="41.6306" y2="49.2041" gradientUnits="userSpaceOnUse">
<stop stop-color="#5DF7EE"/>
<stop offset="1" stop-color="#5174F0"/>
</linearGradient>
<linearGradient id="paint5_linear_1_266" x1="25.513" y1="16.1018" x2="25.513" y2="33.0821" gradientUnits="userSpaceOnUse">
<stop stop-color="#5DF7EE"/>
<stop offset="1" stop-color="#5174F0"/>
</linearGradient>
<linearGradient id="paint6_linear_1_266" x1="25.5198" y1="19.4895" x2="25.5198" y2="29.6805" gradientUnits="userSpaceOnUse">
<stop stop-color="#5DF7EE"/>
<stop offset="1" stop-color="#5174F0"/>
</linearGradient>
</defs>
</svg>
