<svg width="58" height="52" viewBox="0 0 58 52" fill="none" xmlns="http://www.w3.org/2000/svg">
<path d="M57.9698 44.542C57.6975 45.0262 57.274 45.1624 56.7446 45.1624C54.8237 45.1472 52.9027 45.1624 50.9666 45.1624C50.7549 45.1624 50.5583 45.1624 50.3011 45.1624C50.286 45.3893 50.2709 45.5709 50.2709 45.7373C50.2709 47.0839 50.2709 48.4153 50.2709 49.7619C50.2709 50.7605 49.9986 51.0328 48.9852 51.0328C41.2561 51.0328 33.5118 51.0328 25.7827 51.0328C20.519 51.0328 15.2553 51.0479 9.99166 51.0328C5.25737 51.0177 1.4155 48.0825 0.311335 43.6191C0.129829 42.908 0.0239657 42.1666 0.0239657 41.4404C0.00884023 30.8343 -0.0214108 20.2282 0.0239657 9.6221C0.0542167 2.4505 7.78334 -2.17927 14.1814 1.04341C14.8621 1.3914 15.1495 1.81504 15.1343 2.58667C15.089 5.08311 15.1192 7.56442 15.1192 10.0609C15.1192 10.2727 15.1192 10.4694 15.1192 10.7266C16.6318 10.7266 18.0838 10.7266 19.5963 10.7266C19.5963 9.75827 19.6115 8.82021 19.5963 7.88215C19.5963 7.42825 19.7022 7.05 20.1409 6.85331C20.6098 6.64149 20.9728 6.85331 21.3055 7.18617C22.3946 8.29066 23.4836 9.38002 24.5878 10.4694C24.739 10.6207 24.9962 10.772 25.2079 10.772C28.4297 10.7871 31.6665 10.7871 34.8882 10.7871C34.9487 10.7871 34.9941 10.772 35.0849 10.7417C35.1 10.6207 35.1454 10.4996 35.1302 10.3786C34.9941 9.34976 35.3723 8.47222 35.9016 7.62494C36.6579 6.41455 37.3386 5.14363 38.0646 3.90297C38.6091 2.96491 39.3503 2.96491 39.9099 3.90297C40.7418 5.32519 41.5283 6.7474 42.3754 8.15449C42.7081 8.69917 42.8745 9.22872 42.8291 9.86418C42.7989 10.1365 42.8291 10.424 42.8291 10.7871C43.0711 10.7871 43.2678 10.7871 43.4795 10.7871C45.3248 10.7871 47.1853 10.7871 49.0306 10.7871C50.044 10.7871 50.3011 11.0443 50.3011 12.058C50.3011 19.9105 50.3011 27.7629 50.286 35.6154C50.286 36.0541 50.407 36.3416 50.7246 36.6442C52.9632 38.8683 55.1867 41.0924 57.4101 43.3316C57.6219 43.5435 57.8034 43.7855 58 44.0125C57.9697 44.1638 57.9698 44.3454 57.9698 44.542ZM15.1041 12.6027C15.1041 12.875 15.1041 13.1171 15.1041 13.3592C15.1041 19.9105 15.1041 26.4617 15.1041 32.9979C15.1041 33.24 15.1041 33.4972 15.0738 33.7393C14.9982 34.2234 14.5898 34.5411 14.1058 34.4655C13.8789 34.4201 13.652 34.3142 13.4252 34.1932C10.5816 32.7407 7.11782 33.1038 4.72799 35.1161C2.21716 37.2343 1.21887 40.4872 2.17178 43.5889C3.13981 46.7813 6.19516 49.2323 10.0522 49.2172C22.6517 49.1718 35.2513 49.2021 47.8508 49.2021C48.0323 49.2021 48.2138 49.1869 48.4256 49.1718C48.4256 47.8252 48.4256 46.5241 48.4256 45.1472C48.1684 45.1472 47.9264 45.1472 47.6844 45.1472C38.7755 45.1472 29.8817 45.1472 20.9728 45.1472C19.793 45.1472 19.5812 44.9354 19.5812 43.7704C19.5812 33.6182 19.5812 23.466 19.5812 13.3138C19.5812 13.0717 19.5812 12.8448 19.5812 12.5876C18.0536 12.6027 16.6015 12.6027 15.1041 12.6027ZM13.289 32.1355C13.289 31.848 13.289 31.6211 13.289 31.4092C13.289 22.0287 13.289 12.6481 13.3041 3.26752C13.3041 2.72284 13.0924 2.51102 12.6386 2.34459C7.45057 0.347432 1.82389 4.16018 1.80876 9.72801C1.77851 18.1705 1.80876 26.5979 1.80876 35.0404C1.80876 35.1766 1.83902 35.3128 1.85415 35.5397C3.21544 33.7393 4.89436 32.544 6.96656 31.9237C9.069 31.2731 11.1412 31.379 13.289 32.1355ZM21.4114 22.4523C21.8198 22.4523 22.1526 22.4372 22.5005 22.4523C23.0904 22.4674 23.4534 22.8154 23.4685 23.3298C23.4836 23.8745 23.1055 24.2376 22.4853 24.2528C22.1374 24.2679 21.7896 24.2528 21.4265 24.2528C21.4265 25.0244 21.4265 25.7204 21.4265 26.4769C21.7896 26.4769 22.1223 26.4617 22.4551 26.4769C23.1055 26.492 23.4685 26.8097 23.4836 27.3544C23.4836 27.8991 23.1357 28.2471 22.4853 28.2773C22.1374 28.2925 21.7896 28.2773 21.4417 28.2773C21.4417 29.0641 21.4417 29.7449 21.4417 30.4863C21.8047 30.4863 22.1374 30.4712 22.4853 30.4863C23.1206 30.5014 23.4836 30.8494 23.4836 31.3941C23.4836 31.9388 23.1055 32.2868 22.4702 32.3019C22.1223 32.317 21.7744 32.3019 21.4417 32.3019C21.4417 33.0887 21.4417 33.7695 21.4417 34.4958C21.6383 34.5109 21.8047 34.526 21.9711 34.526C22.1526 34.526 22.3492 34.526 22.5307 34.526C23.1357 34.5563 23.4836 34.8891 23.4836 35.4187C23.4836 35.9482 23.1206 36.2962 22.5307 36.3265C22.1828 36.3416 21.8198 36.3265 21.4417 36.3265C21.4417 37.083 21.4417 37.7941 21.4417 38.5355C21.6686 38.5355 21.8501 38.5355 22.0467 38.5355C22.2282 38.5355 22.4248 38.5203 22.6063 38.5355C23.1508 38.5808 23.4836 38.9591 23.4836 39.4584C23.4685 39.9577 23.1206 40.3056 22.5761 40.3359C22.1979 40.351 21.8349 40.3359 21.4417 40.3359C21.4417 41.3647 21.4417 42.3179 21.4417 43.256C32.5589 43.256 43.6459 43.256 54.6573 43.256C43.5854 32.1809 32.4984 21.0906 21.4417 10.0306C21.4417 11.4226 21.4417 12.875 21.4417 14.3729C21.8198 14.3729 22.1526 14.3578 22.4853 14.3729C23.0904 14.388 23.4534 14.7209 23.4685 15.2353C23.4836 15.78 23.1055 16.1582 22.5005 16.1734C22.1526 16.1885 21.7896 16.1734 21.4417 16.1734C21.4417 16.945 21.4417 17.641 21.4417 18.3823C21.6534 18.3823 21.8198 18.3823 21.9862 18.3823C22.1677 18.3823 22.3643 18.3672 22.5458 18.3823C23.1357 18.4277 23.4836 18.7909 23.4534 19.3204C23.4382 19.8197 23.0903 20.1525 22.5156 20.1828C22.1526 20.1979 21.7744 20.1828 21.3963 20.1828C21.4114 20.9998 21.4114 21.6958 21.4114 22.4523ZM42.8291 12.5876C42.814 12.754 42.7989 12.9053 42.7989 13.0566C42.7989 18.1251 42.7989 23.2088 42.814 28.2773C42.814 28.5194 42.9501 28.822 43.1316 29.0036C44.7501 30.6679 46.3988 32.3019 48.0474 33.9359C48.1533 34.0419 48.2894 34.1478 48.4407 34.2688C48.4407 27.0064 48.4407 19.8046 48.4407 12.5876C46.55 12.5876 44.7047 12.5876 42.8291 12.5876ZM26.8717 12.5876C29.6246 15.3412 32.3623 18.0797 35.0697 20.788C35.0697 18.11 35.0697 15.3564 35.0697 12.5876C32.3018 12.5876 29.5641 12.5876 26.8717 12.5876ZM40.9687 10.1063C40.5906 10.1063 40.2578 10.1063 39.8645 10.1063C39.8645 10.3635 39.8645 10.5753 39.8645 10.8022C39.8645 15.553 39.8948 20.3039 39.8343 25.0547C39.8192 25.9625 40.4393 26.2651 40.9687 26.8551C40.9687 21.1965 40.9687 15.6741 40.9687 10.1063ZM36.9302 10.1063C36.9302 10.3635 36.9302 10.5753 36.9302 10.8022C36.9302 14.5393 36.9756 18.2613 36.8999 21.9984C36.8848 22.9365 37.4142 23.345 38.0192 23.8594C38.0192 19.2296 38.0192 14.6755 38.0192 10.1063C37.6562 10.1063 37.3235 10.1063 36.9302 10.1063ZM37.626 8.21501C38.5637 8.21501 39.3956 8.21501 40.3183 8.21501C39.8645 7.41312 39.441 6.68688 38.9721 5.885C38.4881 6.71714 38.0797 7.42825 37.626 8.21501Z" fill="url(#paint0_linear_1_274)"/>
<path d="M25.0114 29.7449C25.0114 26.84 25.0114 23.935 25.0114 21.0301C25.0114 20.5459 25.087 20.1223 25.5861 19.9256C26.0702 19.7289 26.418 19.9861 26.7357 20.3038C32.6346 26.2045 38.5336 32.1052 44.4325 37.9908C44.7653 38.3236 44.977 38.6867 44.7955 39.1558C44.614 39.6248 44.1905 39.7307 43.7367 39.7307C37.868 39.7307 31.9993 39.7307 26.1307 39.7307C25.3139 39.7307 25.0114 39.413 25.0114 38.5808C24.9962 35.6456 25.0114 32.6953 25.0114 29.7449ZM26.8567 23.118C26.8567 28.0352 26.8567 32.9525 26.8567 37.8697C31.8027 37.8697 36.7185 37.8697 41.604 37.8697C36.6882 32.9525 31.7876 28.0504 26.8567 23.118Z" fill="url(#paint1_linear_1_274)"/>
<defs>
<linearGradient id="paint0_linear_1_274" x1="29" y1="0" x2="29" y2="51.0395" gradientUnits="userSpaceOnUse">
<stop stop-color="#5DF7EE"/>
<stop offset="1" stop-color="#5174F0"/>
</linearGradient>
<linearGradient id="paint1_linear_1_274" x1="34.9334" y1="19.857" x2="34.9334" y2="39.7307" gradientUnits="userSpaceOnUse">
<stop stop-color="#5DF7EE"/>
<stop offset="1" stop-color="#5174F0"/>
</linearGradient>
</defs>
</svg>
