<svg width="43" height="58" viewBox="0 0 43 58" fill="none" xmlns="http://www.w3.org/2000/svg">
<path d="M21.7482 0.457031C23.5408 1.1239 25.3334 1.80558 27.126 2.45763C31.7927 4.16184 36.4446 5.85123 41.1113 7.55544C42.252 7.97038 42.5928 8.45942 42.5928 9.65978C42.5928 16.0172 42.5928 22.3747 42.5928 28.7321C42.5928 32.6296 42.1335 36.4678 40.7557 40.1578C39.0668 44.7073 36.1187 48.2639 32.2816 51.1388C29.1261 53.5099 25.6297 55.3327 22.1038 57.0517C21.5853 57.3036 21.0668 57.3185 20.5482 57.0665C16.5927 55.1252 12.7112 53.1098 9.2593 50.309C4.48891 46.4263 1.60001 41.4471 0.548152 35.4008C0.148151 33.1186 0 30.8217 0 28.5099C0 22.2413 0 15.9728 0 9.71906C0 8.4446 0.340746 7.97039 1.54075 7.54063C7.88152 5.22883 14.2223 2.91703 20.563 0.605224C20.6668 0.575585 20.7556 0.501489 20.8445 0.457031C21.1556 0.457031 21.4519 0.457031 21.7482 0.457031ZM39.0224 10.5786C38.9039 10.5193 38.7854 10.4748 38.6668 10.4304C32.9927 8.37051 27.3335 6.29581 21.6594 4.25075C21.4371 4.17666 21.1408 4.17666 20.9334 4.26558C15.3334 6.29581 9.73338 8.34087 4.13335 10.3563C3.71854 10.5045 3.55557 10.6971 3.55557 11.1713C3.57039 16.9508 3.54076 22.7452 3.5852 28.5247C3.60002 30.3178 3.70372 32.1109 3.92594 33.8893C4.59261 39.0908 6.8741 43.4625 10.8593 46.9302C13.926 49.5976 17.4371 51.5538 21.0371 53.3617C21.1853 53.4358 21.4371 53.4358 21.5853 53.3617C24.4594 51.9243 27.2742 50.3831 29.8668 48.4566C32.7705 46.2929 35.2001 43.7292 36.7853 40.4394C38.4002 37.0754 38.9928 33.4743 39.0224 29.7991C39.0668 23.5306 39.0372 17.2621 39.0372 11.0083C39.052 10.8453 39.0372 10.7119 39.0224 10.5786Z" fill="url(#paint0_linear_1_293)"/>
<path d="M11.793 27.6209C12.6078 26.8058 13.4078 26.0056 14.2374 25.1757C16.1337 27.0726 18.0597 28.9991 20.0004 30.9552C23.7782 27.1763 27.4819 23.4715 31.1708 19.7815C32.0153 20.641 32.8301 21.4413 33.5857 22.2119C29.0523 26.7465 24.5041 31.2961 19.9856 35.8159C17.3041 33.1188 14.5485 30.3624 11.793 27.6209Z" fill="url(#paint1_linear_1_293)"/>
<defs>
<linearGradient id="paint0_linear_1_293" x1="21.2964" y1="0.457031" x2="21.2964" y2="57.2482" gradientUnits="userSpaceOnUse">
<stop stop-color="#5DF7EE"/>
<stop offset="1" stop-color="#5174F0"/>
</linearGradient>
<linearGradient id="paint1_linear_1_293" x1="22.6893" y1="19.7815" x2="22.6893" y2="35.8159" gradientUnits="userSpaceOnUse">
<stop stop-color="#5DF7EE"/>
<stop offset="1" stop-color="#5174F0"/>
</linearGradient>
</defs>
</svg>
