<svg width="40" height="39" viewBox="0 0 40 39" fill="none" xmlns="http://www.w3.org/2000/svg">
<path d="M18.9393 30.0607C19.5251 30.6464 20.4749 30.6464 21.0607 30.0607L30.6066 20.5147C31.1924 19.9289 31.1924 18.9792 30.6066 18.3934C30.0208 17.8076 29.0711 17.8076 28.4853 18.3934L20 26.8787L11.5147 18.3934C10.9289 17.8076 9.97919 17.8076 9.3934 18.3934C8.80761 18.9792 8.80761 19.9289 9.3934 20.5147L18.9393 30.0607ZM18.5 6.55671e-08L18.5 29L21.5 29L21.5 -6.55671e-08L18.5 6.55671e-08Z" fill="url(#paint0_linear_1_351)"/>
<path d="M2 37.5H38" stroke="url(#paint1_linear_1_351)" stroke-width="3" stroke-linecap="round"/>
<defs>
<linearGradient id="paint0_linear_1_351" x1="20" y1="14.5" x2="19" y2="14.5" gradientUnits="userSpaceOnUse">
<stop stop-color="#5DF7EE"/>
<stop offset="1" stop-color="#5174F0"/>
</linearGradient>
<linearGradient id="paint1_linear_1_351" x1="20" y1="37.5" x2="20" y2="38.5" gradientUnits="userSpaceOnUse">
<stop stop-color="#5DF7EE"/>
<stop offset="1" stop-color="#5174F0"/>
</linearGradient>
</defs>
</svg>
