<svg width="20" height="20" viewBox="0 0 20 20" fill="none" xmlns="http://www.w3.org/2000/svg">
<path d="M9.712 11.784L9.552 3.8H10.48L10.32 11.784H9.712ZM10.016 15.064C9.83467 15.064 9.68 15 9.552 14.872C9.424 14.7333 9.36 14.5787 9.36 14.408C9.36 14.2267 9.424 14.072 9.552 13.944C9.68 13.816 9.83467 13.752 10.016 13.752C10.208 13.752 10.368 13.816 10.496 13.944C10.624 14.072 10.688 14.2267 10.688 14.408C10.688 14.5787 10.624 14.7333 10.496 14.872C10.368 15 10.208 15.064 10.016 15.064Z" fill="#FF3636"/>
<circle cx="10" cy="10" r="9.5" stroke="#FF3636"/>
</svg>
