<svg width="995" height="222" viewBox="0 0 995 222" fill="none" xmlns="http://www.w3.org/2000/svg">
<g filter="url(#filter0_b_1_324)">
<mask id="path-1-inside-1_1_324" fill="white">
<path fill-rule="evenodd" clip-rule="evenodd" d="M995 40C995 17.9086 977.091 0 955 0H166.556C144.465 0 126.556 17.9086 126.556 40V53C126.556 75.0914 108.648 93 86.5563 93H21.5751C13.0501 93 5.3357 98.0524 1.92871 105.867C-4.24353 120.024 6.1309 135.865 21.5751 135.865H86.5564C108.648 135.865 126.556 153.773 126.556 175.865V181.804C126.556 203.895 144.465 221.804 166.556 221.804H955C977.091 221.804 995 203.895 995 181.804V40Z"/>
</mask>
<path fill-rule="evenodd" clip-rule="evenodd" d="M995 40C995 17.9086 977.091 0 955 0H166.556C144.465 0 126.556 17.9086 126.556 40V53C126.556 75.0914 108.648 93 86.5563 93H21.5751C13.0501 93 5.3357 98.0524 1.92871 105.867C-4.24353 120.024 6.1309 135.865 21.5751 135.865H86.5564C108.648 135.865 126.556 153.773 126.556 175.865V181.804C126.556 203.895 144.465 221.804 166.556 221.804H955C977.091 221.804 995 203.895 995 181.804V40Z" fill="#B9B9B9" fill-opacity="0.1"/>
<path d="M166.556 1H955V-1H166.556V1ZM127.556 53V40H125.556V53H127.556ZM21.5751 94H86.5563V92H21.5751V94ZM86.5564 134.865H21.5751V136.865H86.5564V134.865ZM127.556 181.804V175.865H125.556V181.804H127.556ZM955 220.804H166.556V222.804H955V220.804ZM994 40V181.804H996V40H994ZM955 222.804C977.644 222.804 996 204.448 996 181.804H994C994 203.343 976.539 220.804 955 220.804V222.804ZM125.556 181.804C125.556 204.448 143.913 222.804 166.556 222.804V220.804C145.017 220.804 127.556 203.343 127.556 181.804H125.556ZM86.5564 136.865C108.095 136.865 125.556 154.326 125.556 175.865H127.556C127.556 153.221 109.2 134.865 86.5564 134.865V136.865ZM1.01204 105.467C-5.44819 120.285 5.4103 136.865 21.5751 136.865V134.865C6.85151 134.865 -3.03888 119.763 2.84538 106.267L1.01204 105.467ZM21.5751 92C12.6524 92 4.57799 97.2881 1.01204 105.467L2.84538 106.267C6.0934 98.8167 13.4479 94 21.5751 94V92ZM125.556 53C125.556 74.5391 108.095 92 86.5563 92V94C109.2 94 127.556 75.6437 127.556 53H125.556ZM955 1C976.539 1 994 18.4609 994 40H996C996 17.3563 977.644 -1 955 -1V1ZM166.556 -1C143.913 -1 125.556 17.3563 125.556 40H127.556C127.556 18.4609 145.017 1 166.556 1V-1Z" fill="url(#paint0_linear_1_324)" mask="url(#path-1-inside-1_1_324)"/>
</g>
<defs>
<filter id="filter0_b_1_324" x="-49.8809" y="-50" width="1094.88" height="321.804" filterUnits="userSpaceOnUse" color-interpolation-filters="sRGB">
<feFlood flood-opacity="0" result="BackgroundImageFix"/>
<feGaussianBlur in="BackgroundImageFix" stdDeviation="25"/>
<feComposite in2="SourceAlpha" operator="in" result="effect1_backgroundBlur_1_324"/>
<feBlend mode="normal" in="SourceGraphic" in2="effect1_backgroundBlur_1_324" result="shape"/>
</filter>
<linearGradient id="paint0_linear_1_324" x1="1023.31" y1="-1.81786" x2="737.078" y2="488.384" gradientUnits="userSpaceOnUse">
<stop stop-color="white"/>
<stop offset="1" stop-color="white" stop-opacity="0"/>
</linearGradient>
</defs>
</svg>
