<svg width="1618" height="321" viewBox="0 0 1618 321" fill="none" xmlns="http://www.w3.org/2000/svg">
<g filter="url(#filter0_b_1_344)">
<mask id="path-1-inside-1_1_344" fill="white">
<path fill-rule="evenodd" clip-rule="evenodd" d="M592.618 25.879C586.742 10.3066 571.838 0 555.194 0H144.087C128.161 0 113.752 9.44785 107.403 24.0537L81.3682 83.9463C75.0191 98.5521 60.6103 108 44.6842 108H40C17.9086 108 0 125.909 0 148V281C0 303.091 17.9086 321 40 321H1578C1600.09 321 1618 303.091 1618 281V148C1618 125.909 1600.09 108 1578 108H651.264C634.62 108 619.715 97.6935 613.839 82.1211L592.618 25.879Z"/>
</mask>
<path fill-rule="evenodd" clip-rule="evenodd" d="M592.618 25.879C586.742 10.3066 571.838 0 555.194 0H144.087C128.161 0 113.752 9.44785 107.403 24.0537L81.3682 83.9463C75.0191 98.5521 60.6103 108 44.6842 108H40C17.9086 108 0 125.909 0 148V281C0 303.091 17.9086 321 40 321H1578C1600.09 321 1618 303.091 1618 281V148C1618 125.909 1600.09 108 1578 108H651.264C634.62 108 619.715 97.6935 613.839 82.1211L592.618 25.879Z" fill="#B9B9B9" fill-opacity="0.1"/>
<path d="M613.839 82.1211L614.775 81.768L613.839 82.1211ZM592.618 25.879L591.683 26.232L592.618 25.879ZM107.403 24.0537L106.486 23.6551L107.403 24.0537ZM144.087 1H555.194V-1H144.087V1ZM82.2853 84.3449L108.32 24.4524L106.486 23.6551L80.4511 83.5476L82.2853 84.3449ZM40 109H44.6842V107H40V109ZM1 281V148H-1V281H1ZM1578 320H40V322H1578V320ZM1617 148V281H1619V148H1617ZM651.264 109H1578V107H651.264V109ZM591.683 26.232L612.904 82.4741L614.775 81.768L593.554 25.5259L591.683 26.232ZM651.264 107C635.036 107 620.504 96.9511 614.775 81.768L612.904 82.4741C618.927 98.4358 634.204 109 651.264 109V107ZM1619 148C1619 125.356 1600.64 107 1578 107V109C1599.54 109 1617 126.461 1617 148H1619ZM1578 322C1600.64 322 1619 303.644 1619 281H1617C1617 302.539 1599.54 320 1578 320V322ZM-1 281C-1 303.644 17.3563 322 40 322V320C18.4609 320 1 302.539 1 281H-1ZM40 107C17.3563 107 -1 125.356 -1 148H1C1 126.461 18.4609 109 40 109V107ZM80.4511 83.5476C74.2608 97.7883 60.2122 107 44.6842 107V109C61.0085 109 75.7775 99.3159 82.2853 84.3449L80.4511 83.5476ZM555.194 1C571.422 1 585.954 11.0489 591.683 26.232L593.554 25.5259C587.531 9.56423 572.254 -1 555.194 -1V1ZM144.087 -1C127.763 -1 112.994 8.68405 106.486 23.6551L108.32 24.4524C114.51 10.2117 128.559 1 144.087 1V-1Z" fill="url(#paint0_linear_1_344)" mask="url(#path-1-inside-1_1_344)"/>
</g>
<defs>
<filter id="filter0_b_1_344" x="-50" y="-50" width="1718" height="421" filterUnits="userSpaceOnUse" color-interpolation-filters="sRGB">
<feFlood flood-opacity="0" result="BackgroundImageFix"/>
<feGaussianBlur in="BackgroundImageFix" stdDeviation="25"/>
<feComposite in2="SourceAlpha" operator="in" result="effect1_backgroundBlur_1_344"/>
<feBlend mode="normal" in="SourceGraphic" in2="effect1_backgroundBlur_1_344" result="shape"/>
</filter>
<linearGradient id="paint0_linear_1_344" x1="1646.91" y1="20.7084" x2="1564.47" y2="428.31" gradientUnits="userSpaceOnUse">
<stop stop-color="white"/>
<stop offset="1" stop-color="white" stop-opacity="0"/>
</linearGradient>
</defs>
</svg>
